<?xml version="1.0" standalone="no"?>
<!DOCTYPE svg PUBLIC "-//W3C//DTD SVG 20010904//EN"
 "http://www.w3.org/TR/2001/REC-SVG-20010904/DTD/svg10.dtd">
<svg version="1.0" xmlns="http://www.w3.org/2000/svg"
 width="1126.000000pt" height="1126.000000pt" viewBox="0 0 1126.000000 1126.000000"
 preserveAspectRatio="xMidYMid meet">

<g transform="translate(0.000000,1126.000000) scale(0.100000,-0.100000)"
fill="#000000" stroke="none">
<path d="M5585 10866 c-86 -37 -117 -88 -219 -353 -61 -158 -103 -324 -88
-347 3 -6 7 -35 8 -65 1 -45 -2 -59 -17 -69 -40 -28 -69 -100 -104 -253 -19
-85 -40 -167 -46 -184 -9 -26 -59 -301 -59 -325 0 -5 -13 -25 -30 -43 -16 -19
-30 -41 -30 -50 0 -26 -37 -132 -68 -193 -16 -32 -39 -93 -51 -134 -12 -41
-32 -106 -45 -145 -13 -38 -34 -101 -46 -140 -32 -101 -64 -150 -119 -183 -32
-20 -52 -41 -60 -63 -7 -19 -20 -52 -28 -74 -28 -75 -43 -100 -147 -252 -102
-150 -142 -233 -161 -341 -9 -54 -22 -77 -59 -105 -61 -47 -132 -201 -106
-231 9 -11 -3 -24 -59 -61 -89 -60 -144 -124 -214 -250 -103 -184 -134 -312
-102 -421 22 -78 56 -121 104 -134 32 -8 41 -17 61 -62 31 -68 195 -233 311
-313 119 -82 174 -111 270 -144 160 -55 184 -70 308 -185 18 -17 46 -56 62
-86 16 -30 45 -79 63 -109 42 -65 89 -205 111 -326 9 -49 25 -128 36 -175 11
-47 35 -195 54 -330 20 -135 44 -294 55 -355 10 -60 24 -159 30 -220 6 -60 15
-150 20 -200 51 -470 62 -970 40 -1930 -10 -427 -21 -541 -67 -713 -44 -164
-63 -272 -69 -392 -6 -112 -5 -116 23 -170 23 -45 37 -60 78 -80 43 -21 63
-24 155 -24 113 0 160 15 206 66 55 60 62 192 22 393 -65 324 -76 401 -93 660
-31 461 -35 555 -46 1090 -20 907 -20 965 -9 1085 6 63 15 205 20 315 15 320
47 638 82 815 43 223 142 494 198 545 14 12 40 18 102 20 129 4 549 120 728
200 52 23 142 61 200 84 153 62 191 80 231 112 49 39 107 161 118 248 9 69 -1
167 -21 205 -28 55 -92 127 -143 161 -92 60 -179 217 -225 405 -41 163 -86
290 -114 319 -29 31 -94 213 -126 356 -12 55 -37 143 -56 195 -81 229 -167
458 -188 500 -65 130 -91 178 -109 204 -12 16 -26 63 -34 110 -20 125 -34 431
-23 517 13 105 12 120 -11 159 -25 40 -29 102 -32 445 -2 164 -5 215 -17 235
-8 14 -15 52 -17 85 -1 33 -11 94 -23 135 -11 41 -29 118 -40 170 -45 223 -96
317 -210 394 -30 20 -122 21 -165 2z m-342 -4238 c27 -14 23 -73 -8 -103 -30
-31 -47 -31 -80 -2 -30 25 -38 84 -16 110 13 16 68 13 104 -5z"/>
</g>
</svg>
